<?xml version="1.0" encoding="iso-8859-1"?>
<!-- Generator: Adobe Illustrator 19.0.0, SVG Export Plug-In . SVG Version: 6.00 Build 0)  -->
<svg xmlns="http://www.w3.org/2000/svg" xmlns:xlink="http://www.w3.org/1999/xlink" version="1.1" id="Capa_1" x="0px" y="0px" viewBox="0 0 512 512" style="enable-background:new 0 0 512 512;" xml:space="preserve" width="512px" height="512px">
<g>
	<g>
		<path d="M479.083,386.029v-44.166c0-21.469-3.05-42.713-9.066-63.145c0-0.001,0-0.002,0-0.002    c-10.478-35.548-29.937-68.259-56.274-94.595c-25.162-25.161-56.026-43.957-89.695-54.745c0.015-0.505,0.046-1.008,0.042-1.514    c7.498-7.384,11.843-17.563,11.843-28.205c0-10.642-4.343-20.82-11.841-28.203c0.082-10.524-4.041-20.791-11.563-28.313    c-7.529-7.528-17.799-11.674-28.322-11.574c-7.383-7.497-17.561-11.841-28.204-11.841s-20.82,4.343-28.204,11.841    c-10.538-0.119-20.794,4.046-28.321,11.574c-7.524,7.522-11.647,17.789-11.564,28.313c-7.498,7.383-11.841,17.561-11.841,28.203    c0,10.642,4.344,20.821,11.843,28.205c-0.004,0.505,0.027,1.009,0.042,1.514c-33.1,10.604-63.539,28.979-88.465,53.523    c-27.03,26.614-46.933,59.812-57.56,96.007c-5.981,20.359-9.014,41.541-9.014,62.958v44.166C13.984,391.108,0,408.409,0,428.923    v18.942c0,24.487,19.921,44.409,44.409,44.409h423.181c24.487,0,44.409-19.921,44.409-44.409v-18.942    C512,408.409,498.016,391.107,479.083,386.029z M204.232,83.909c3.067-2.224,4.623-5.982,4.027-9.722    c-0.981-6.152,1.051-12.442,5.435-16.825c4.456-4.456,10.593-6.434,16.836-5.446c3.739,0.6,7.498-0.961,9.721-4.027    c3.657-5.043,9.544-8.053,15.749-8.053s12.092,3.01,15.749,8.053c2.224,3.068,5.984,4.627,9.721,4.027    c6.245-0.989,12.38,0.989,16.837,5.446c4.384,4.383,6.416,10.673,5.434,16.825c-0.596,3.74,0.96,7.498,4.027,9.722    c5.043,3.658,8.054,9.544,8.054,15.749c0,6.204-3.011,12.091-8.054,15.749c-2.727,1.977-4.249,5.168-4.136,8.481    c-15.586-3.388-31.556-5.108-47.633-5.108c-16.077,0-32.047,1.718-47.633,5.108c0.114-3.313-1.41-6.504-4.136-8.481    c-5.043-3.658-8.054-9.544-8.054-15.749C196.175,93.453,199.189,87.567,204.232,83.909z M201.82,146.199    c17.564-4.85,35.792-7.31,54.18-7.31s36.616,2.459,54.178,7.309c33.634,9.296,64.529,27.327,89.345,52.143    c22.321,22.321,39.204,49.67,49.118,79.439l-53.108,39.751l-63.822-47.773c-3.571-2.672-8.479-2.673-12.05,0.001l-63.811,47.771    l-63.811-47.771c-3.572-2.674-8.48-2.674-12.051,0l-63.811,47.771l-52.875-39.576C84.447,214.274,136.948,164.121,201.82,146.199z     M53.026,341.864c0-14.549,1.538-28.975,4.579-43.056l52.547,39.332c3.572,2.672,8.479,2.673,12.05-0.001l63.811-47.771    l63.811,47.771c3.572,2.674,8.48,2.674,12.051,0l63.811-47.771l63.821,47.773c1.787,1.336,3.905,2.005,6.026,2.005    c2.119,0,4.239-0.669,6.024-2.005l52.799-39.52c3.068,14.148,4.619,28.636,4.619,43.244v42.65H53.026V341.864z M54.534,472.166    H44.409c-13.399,0-24.301-10.902-24.301-24.301v-18.942c0-13.399,10.902-24.301,24.301-24.301h10.125V472.166z M118.207,472.166    H74.642v-67.544h43.565V472.166z M181.88,472.166h-43.565v-67.544h43.565V472.166z M245.564,472.166h-43.575v-67.544h43.575    V472.166z M309.237,472.166h-43.565v-67.544h43.565V472.166z M372.91,472.166h-43.565v-67.544h43.565V472.166z M436.594,472.166    h-43.575v-67.544h43.575V472.166z M491.892,447.865c0,13.399-10.902,24.301-24.301,24.301h-10.889v-67.544h10.889    c13.399,0,24.301,10.902,24.301,24.301V447.865z" fill="#D80027"/>
	</g>
</g>
<g>
	<g>
		<path d="M385.303,212.559c-22.363-22.362-50.19-38.606-80.475-46.978c-5.352-1.476-10.89,1.66-12.37,7.013    c-1.477,5.352,1.662,10.89,7.014,12.37c26.94,7.446,51.704,21.906,71.612,41.815c1.964,1.963,4.536,2.945,7.109,2.945    c2.573,0,5.147-0.982,7.109-2.945C389.229,222.853,389.229,216.486,385.303,212.559z" fill="#D80027"/>
	</g>
</g>
<g>
	<g>
		<path d="M266.389,159.145c-12.939,0-12.96,20.108,0,20.108C279.328,179.254,279.349,159.145,266.389,159.145z" fill="#D80027"/>
	</g>
</g>
<g>
</g>
<g>
</g>
<g>
</g>
<g>
</g>
<g>
</g>
<g>
</g>
<g>
</g>
<g>
</g>
<g>
</g>
<g>
</g>
<g>
</g>
<g>
</g>
<g>
</g>
<g>
</g>
<g>
</g>
</svg>
