<?xml version="1.0" encoding="UTF-8"?>
<svg width="512px" height="474px" viewBox="0 0 512 474" version="1.1" xmlns="http://www.w3.org/2000/svg" xmlns:xlink="http://www.w3.org/1999/xlink">
    <!-- Generator: Sketch 47.1 (45422) - http://www.bohemiancoding.com/sketch -->
    <title>Artboard 14</title>
    <desc>Created with Sketch.</desc>
    <defs></defs>
    <g id="Page-1" stroke="none" stroke-width="1" fill="none" fill-rule="evenodd">
        <g id="Artboard-14" fill-rule="nonzero" fill="#543779">
            <g id="winter-hat">
                <path d="M479.083,367.029 L479.083,322.863 C479.083,301.394 476.033,280.15 470.017,259.718 C470.017,259.717 470.017,259.716 470.017,259.716 C459.539,224.168 440.08,191.457 413.743,165.121 C388.581,139.96 357.717,121.164 324.048,110.376 C324.063,109.871 324.094,109.368 324.09,108.862 C331.588,101.478 335.933,91.299 335.933,80.657 C335.933,70.015 331.59,59.837 324.092,52.454 C324.174,41.93 320.051,31.663 312.529,24.141 C305,16.613 294.73,12.467 284.207,12.567 C276.824,5.07 266.646,0.726 256.003,0.726 C245.36,0.726 235.183,5.069 227.799,12.567 C217.261,12.448 207.005,16.613 199.478,24.141 C191.954,31.663 187.831,41.93 187.914,52.454 C180.416,59.837 176.073,70.015 176.073,80.657 C176.073,91.299 180.417,101.478 187.916,108.862 C187.912,109.367 187.943,109.871 187.958,110.376 C154.858,120.98 124.419,139.355 99.493,163.899 C72.463,190.513 52.56,223.711 41.933,259.906 C35.952,280.265 32.919,301.447 32.919,322.864 L32.919,367.03 C13.984,372.108 0,389.409 0,409.923 L0,428.865 C0,453.352 19.921,473.274 44.409,473.274 L467.59,473.274 C492.077,473.274 511.999,453.353 511.999,428.865 L511.999,409.923 C512,389.409 498.016,372.107 479.083,367.029 Z M204.232,64.909 C207.299,62.685 208.855,58.927 208.259,55.187 C207.278,49.035 209.31,42.745 213.694,38.362 C218.15,33.906 224.287,31.928 230.53,32.916 C234.269,33.516 238.028,31.955 240.251,28.889 C243.908,23.846 249.795,20.836 256,20.836 C262.205,20.836 268.092,23.846 271.749,28.889 C273.973,31.957 277.733,33.516 281.47,32.916 C287.715,31.927 293.85,33.905 298.307,38.362 C302.691,42.745 304.723,49.035 303.741,55.187 C303.145,58.927 304.701,62.685 307.768,64.909 C312.811,68.567 315.822,74.453 315.822,80.658 C315.822,86.862 312.811,92.749 307.768,96.407 C305.041,98.384 303.519,101.575 303.632,104.888 C288.046,101.5 272.076,99.78 255.999,99.78 C239.922,99.78 223.952,101.498 208.366,104.888 C208.48,101.575 206.956,98.384 204.23,96.407 C199.187,92.749 196.176,86.863 196.176,80.658 C196.175,74.453 199.189,68.567 204.232,64.909 Z M201.82,127.199 C219.384,122.349 237.612,119.889 256,119.889 C274.388,119.889 292.616,122.348 310.178,127.198 C343.812,136.494 374.707,154.525 399.523,179.341 C421.844,201.662 438.727,229.011 448.641,258.78 L395.533,298.531 L331.711,250.758 C328.14,248.086 323.232,248.085 319.661,250.759 L255.85,298.53 L192.039,250.759 C188.467,248.085 183.559,248.085 179.988,250.759 L116.177,298.53 L63.302,258.954 C84.447,195.274 136.948,145.121 201.82,127.199 Z M53.026,322.864 C53.026,308.315 54.564,293.889 57.605,279.808 L110.152,319.14 C113.724,321.812 118.631,321.813 122.202,319.139 L186.013,271.368 L249.824,319.139 C253.396,321.813 258.304,321.813 261.875,319.139 L325.686,271.368 L389.507,319.141 C391.294,320.477 393.412,321.146 395.533,321.146 C397.652,321.146 399.772,320.477 401.557,319.141 L454.356,279.621 C457.424,293.769 458.975,308.257 458.975,322.865 L458.975,365.515 L53.026,365.515 L53.026,322.864 Z M54.534,453.166 L44.409,453.166 C31.01,453.166 20.108,442.264 20.108,428.865 L20.108,409.923 C20.108,396.524 31.01,385.622 44.409,385.622 L54.534,385.622 L54.534,453.166 Z M118.207,453.166 L74.642,453.166 L74.642,385.622 L118.207,385.622 L118.207,453.166 Z M181.88,453.166 L138.315,453.166 L138.315,385.622 L181.88,385.622 L181.88,453.166 Z M245.564,453.166 L201.989,453.166 L201.989,385.622 L245.564,385.622 L245.564,453.166 L245.564,453.166 Z M309.237,453.166 L265.672,453.166 L265.672,385.622 L309.237,385.622 L309.237,453.166 Z M372.91,453.166 L329.345,453.166 L329.345,385.622 L372.91,385.622 L372.91,453.166 Z M436.594,453.166 L393.019,453.166 L393.019,385.622 L436.594,385.622 L436.594,453.166 Z M491.892,428.865 C491.892,442.264 480.99,453.166 467.591,453.166 L456.702,453.166 L456.702,385.622 L467.591,385.622 C480.99,385.622 491.892,396.524 491.892,409.923 L491.892,428.865 Z" id="Shape"></path>
                <path d="M385.303,193.559 C362.94,171.197 335.113,154.953 304.828,146.581 C299.476,145.105 293.938,148.241 292.458,153.594 C290.981,158.946 294.12,164.484 299.472,165.964 C326.412,173.41 351.176,187.87 371.084,207.779 C373.048,209.742 375.62,210.724 378.193,210.724 C380.766,210.724 383.34,209.742 385.302,207.779 C389.229,203.853 389.229,197.486 385.303,193.559 Z" id="Shape"></path>
                <path d="M266.389,140.145 C253.45,140.145 253.429,160.253 266.389,160.253 C279.328,160.254 279.349,140.145 266.389,140.145 Z" id="Shape"></path>
            </g>
        </g>
    </g>
</svg>