<?xml version="1.0" encoding="utf-8"?>
<!-- Generator: Adobe Illustrator 21.0.0, SVG Export Plug-In . SVG Version: 6.00 Build 0)  -->
<svg version="1.1" id="Layer_1" xmlns="http://www.w3.org/2000/svg" xmlns:xlink="http://www.w3.org/1999/xlink" x="0px" y="0px"
	 viewBox="0 0 426.3 426.6" style="enable-background:new 0 0 426.3 426.6;" xml:space="preserve">
<style type="text/css">
	.st0{fill:#EB516C;}
	.st1{fill:#E5768E;}
</style>
<path class="st0" d="M364.2,62.5C323.9,22.2,270.3,0,213.3,0S102.8,22.2,62.5,62.5C22.2,102.8,0,156.3,0,213.3
	c0,57,22.2,110.5,62.5,150.8c40.3,40.3,93.9,62.5,150.8,62.5c57,0,110.6-22.2,150.9-62.5s62.5-93.9,62.5-150.8
	C426.7,156.3,404.5,102.8,364.2,62.5z"/>
<g>
	<path class="st1" d="M270.8,7.8C257,21.3,225.6,54.9,193.2,107c-24.8,39.8-44.8,82.3-59.7,126.2c-17.8,52.5-28.1,107.2-30.7,162.7
		c6.7,4,13.5,7.7,20.6,11c0.3-0.8,0.4-1.7,0.4-2.7c1.9-55.8,11.9-110.9,29.7-163.7c14.3-42.3,33.6-83.2,57.4-121.6
		c32.5-52.5,67.3-89.6,81.2-102c0.5-0.4,1-0.9,1.3-1.5C286,12.5,278.5,9.9,270.8,7.8z"/>
	<path class="st1" d="M213.3,0c-1.1,0-2.2,0-3.3,0c-14.4,15.4-42.6,48-71.1,95.1c-23.4,38.6-42.2,79-55.7,120
		c-15.6,47.3-24.3,95.6-25.9,143.6c1.7,1.8,3.4,3.6,5.2,5.4c4.5,4.5,9.2,8.8,14,12.9c1.1-1.7,1.8-3.7,1.8-5.9
		c0.4-49.7,8.7-99.9,24.9-149c13-39.4,31-78.2,53.5-115.4C187.5,55.9,221,18.3,234.4,5.6c1.3-1.2,2.2-2.7,2.7-4.2
		C229.3,0.5,221.3,0,213.3,0z"/>
	<path class="st1" d="M84.4,86.3c-19.2,32.9-34.5,67.5-45.4,102.7c-11.5,37.2-18,75.3-19.6,113.5c4.8,10.3,10.4,20.3,16.8,29.8
		c2.6-2,4.2-5.1,4.2-8.5c-0.3-43,6-86.1,18.9-128.1c10.3-33.6,24.8-66.6,43.2-98.1c25-43,52.5-74.3,63.5-84.9
		c2.3-2.2,3.4-5.3,3.3-8.3c-11.7,2.4-23.1,5.8-34.1,10.2C122.3,29.6,103.4,53.9,84.4,86.3z"/>
	<path class="st1" d="M235.1,267.5c64.8,0,128.5-10,190.1-29.7c0.9-7.5,1.3-15.2,1.4-22.9c-69.6,23.3-142.1,33.7-215.9,30.7
		c4.7-12.5,9.7-24.8,15.1-36.8c3.4,0,6.7,0.1,10.1,0.1c62.6,0,126-8.1,188.9-24.1c-0.9-7.1-2.2-14.1-3.9-21
		c-61.7,15.8-123.8,23.8-185.2,23.8c6.3-12.9,13-25.5,20-37.8c0.7,0,1.3,0,2,0c62.9,0,119.7-14,150.6-23.3c-3-6.6-6.3-13.1-9.9-19.4
		c-28.4,8.3-76.6,19.8-129.7,21.2c8.5-13.4,16.9-25.7,24.9-36.5c35.7-1.1,63.9-6.1,81.6-10.1c1.8-0.4,3.5-0.8,5.1-1.2
		c-5-6.3-10.4-12.3-16.1-18.1c0,0-0.1-0.1-0.1-0.1c-14,2.9-31.8,5.8-53,7.3c11.5-14,21.1-24,27-29.4c-5.9-4.3-12.1-8.3-18.4-11.9
		c-11.5,11.4-41.2,43.2-73.4,95.7c-1.9,3.2-3.8,6.3-5.7,9.5c-0.1,0.2-0.2,0.3-0.3,0.5c-11.2,19.1-21.5,39-30.9,59.5
		c-0.1,0.1-0.1,0.3-0.2,0.5c-8.1,17.6-15.4,35.7-22,54.1c-0.5,1.2-0.9,2.5-1.3,3.7c0,0,0,0.1,0,0.2c-6.4,18.1-12.1,36.6-17,55.4
		c-0.1,0.3-0.1,0.5-0.2,0.8c-4.6,17.5-8.6,35.3-11.9,53.4c0,0.2-0.1,0.4-0.1,0.6c-3.3,18-6,36.2-8,54.5c6.8,2.2,13.8,4,20.9,5.5
		c1.7-15.7,3.8-31.2,6.5-46.6c15.7,1.4,31.3,2.2,46.9,2.2c18.1,0,36.1-1,53.8-2.9c33.5-3.7,66.3-10.8,97.8-21.4
		c8.5-9.7,16-20.2,22.6-31.1c-0.5,0.1-0.9,0.3-1.4,0.5c-38.5,15.8-79.3,26.2-121.3,30.8c-30.8,3.4-62.5,3.7-94.4,0.9
		c2.2-10.9,4.6-21.7,7.3-32.5c16.4,1.3,32.6,2,48.6,2c60.9,0,119.4-9.4,174.5-28c3.5-8.4,6.5-17,8.9-25.8
		c-70.2,26.3-146.3,36.7-226.5,30.8c3.3-11.6,6.8-23,10.6-34.3C213.9,267.2,224.5,267.5,235.1,267.5z"/>
</g>
</svg>
